<?xml version="1.0" standalone="no"?>
<!DOCTYPE svg PUBLIC "-//W3C//DTD SVG 20010904//EN"
 "http://www.w3.org/TR/2001/REC-SVG-20010904/DTD/svg10.dtd">
<svg version="1.0" xmlns="http://www.w3.org/2000/svg"
 width="16.000000pt" height="16.000000pt" viewBox="0 0 16.000000 16.000000"
 preserveAspectRatio="xMidYMid meet">

<g transform="translate(0.000000,16.000000) scale(0.100000,-0.100000)"
fill="white" stroke="none">
<path d="M79 138 c-7 -13 -17 -26 -23 -30 -8 -5 -7 -8 2 -8 8 0 10 -9 6 -27
-12 -55 -15 -62 -32 -66 -12 -3 -10 -5 6 -6 23 -1 35 17 46 71 3 14 14 29 24
31 16 4 16 5 0 6 -27 2 -19 32 12 44 10 4 8 6 -7 6 -13 1 -27 -8 -34 -21z"/>
</g>
</svg>
